PathFileType	4	(X/Y/Z)	c:/Users/goper/Files/vsCode/490R/osim_files/C15/C15_Slow_02.trc
DataRate	CameraRate	NumFrames	NumMarkers	Units                	OrigDataRate	OrigDataStartFrame	OrigNumFrames
250.00	250.00	8	36	mm	250.0	1549	3097
                Frame#	Time	LPSIS			LASIS			LTH1			LTH2			LTH3			LTH4			LLFE			LMFE			LSH1			LSH2			LSH3			LSH4			LLMAL			LMMAL			LCAL			LMTP5			LTOE			LMTP1			RPSIS			RASIS			RTH1			RTH2			RTH3			RTH4			RLFE			RMFE			RSH1			RSH2			RSH3			RSH4			RLMAL			RMMAL			RCAL			RMTP1			RTOE			RMTP5		
		X1	Y1	Z1	X2	Y2	Z2	X3	Y3	Z3	X4	Y4	Z4	X5	Y5	Z5	X6	Y6	Z6	X7	Y7	Z7	X8	Y8	Z8	X9	Y9	Z9	X10	Y10	Z10	X11	Y11	Z11	X12	Y12	Z12	X13	Y13	Z13	X14	Y14	Z14	X15	Y15	Z15	X16	Y16	Z16	X17	Y17	Z17	X18	Y18	Z18	X19	Y19	Z19	X20	Y20	Z20	X21	Y21	Z21	X22	Y22	Z22	X23	Y23	Z23	X24	Y24	Z24	X25	Y25	Z25	X26	Y26	Z26	X27	Y27	Z27	X28	Y28	Z28	X29	Y29	Z29	X30	Y30	Z30	X31	Y31	Z31	X32	Y32	Z32	X33	Y33	Z33	X34	Y34	Z34	X35	Y35	Z35	X36	Y36	Z36

1549	6.19200	374.22882	997.10254	227.21239	218.25761	972.52917	313.26859	365.45117	594.92633	357.20889	371.02374	548.19983	340.37952	313.44388	593.15417	356.87177	320.65491	549.02240	347.56320	373.54559	470.52591	327.26633	360.61420	452.09387	209.26483	474.88507	396.20444	332.89676	497.83154	358.39746	337.93134	423.98154	364.24060	336.36554	452.22324	329.43707	339.76465	600.26740	115.53085	271.98300	568.50439	133.40869	184.14334	665.64789	104.13341	223.49150	502.30270	33.33020	296.16336	441.03790	51.95740	237.51744	482.19269	28.18357	177.73422	356.96756	998.38171	107.23788	192.87958	980.70056	66.25993	156.42633	619.17822	2.41751	141.12541	576.52161	12.83845	100.74807	636.13275	18.58791	92.15000	590.60809	24.02721	101.83595	493.59647	46.37175	121.51696	471.68488	159.37180	158.67513	372.77756	25.58793	146.63269	330.64526	21.80515	94.94456	380.19229	25.12937	95.39777	338.44107	19.68987	65.17879	81.03638	77.68069	36.76404	109.13089	165.07953	117.89347	50.89370	125.10271	-82.28119	50.30571	166.02585	-113.92424	77.28330	112.75215	-58.59427	34.16585	51.60956
1550	6.19600	369.77173	996.98108	226.98314	213.72484	972.26996	312.84991	360.78943	594.56555	356.98676	366.44754	547.91516	340.22223	308.87851	592.87280	356.78525	315.80685	548.41064	347.40427	368.83905	470.31644	327.28516	355.97650	451.62857	209.18242	470.69125	396.82996	332.93109	494.13263	359.27722	337.99435	420.21530	364.43320	336.58081	448.80606	329.89166	339.91254	598.82440	117.33157	272.18707	566.56860	134.59773	184.48811	664.23004	106.78716	223.64311	502.03265	33.48165	296.14676	440.77994	51.81061	237.54599	482.03857	28.38477	177.83498	352.58536	998.69189	106.94309	188.20473	981.16669	65.71599	151.98302	619.60986	2.01349	136.47340	576.77905	12.59954	96.11402	636.70148	18.20634	87.74013	590.95239	23.78214	97.36110	493.92520	46.19732	117.73661	472.18338	158.94583	154.34077	373.54147	24.60854	143.24908	331.15048	21.06838	90.64752	380.64691	24.67668	91.61533	338.82690	19.26331	64.41962	81.04984	77.63849	35.90079	108.56203	165.09769	117.54245	51.61256	125.10329	-83.02294	48.66523	166.28551	-114.90164	75.51791	113.11818	-59.07259	33.55238	51.62098
1551	6.20000	365.26050	996.96075	226.72475	209.14211	972.09521	312.40482	356.01727	594.21167	356.73871	361.58746	547.50323	340.00870	303.75558	592.34576	356.48578	310.87561	548.05438	347.28876	364.04205	470.11951	327.38525	350.97955	451.12634	209.21063	466.38110	397.55365	332.97949	490.25494	360.20880	338.11768	416.49734	364.63257	337.42657	445.23642	330.44989	340.08215	597.42078	119.26863	272.44974	564.86505	136.30807	184.76114	662.71082	109.56644	223.75127	501.68063	33.65808	296.15790	440.39062	51.52782	237.58728	481.91565	28.57921	177.88974	348.16882	999.07794	106.68887	183.85936	981.57983	65.23019	147.27135	620.09088	1.62972	131.96072	577.09668	12.34019	91.74649	637.35333	19.05173	82.90108	590.98584	22.52390	92.99171	494.29233	45.79840	113.78632	472.83109	158.60593	149.43005	374.29681	23.20433	139.51752	331.80856	20.11898	86.47959	381.06805	24.16568	87.86652	339.37668	18.70651	63.58713	81.04437	77.62839	35.32862	108.21840	165.25694	117.06824	52.20485	125.01942	-83.40555	47.32181	166.52946	-115.83361	73.88608	113.48108	-59.46794	33.09895	51.67620
1552	6.20400	360.40305	996.81091	226.42580	204.58752	971.95392	311.88910	351.29599	593.95160	356.51672	356.61670	547.16943	339.89047	299.32053	592.32440	356.67734	306.23523	547.91595	347.40845	359.14868	469.95804	327.54816	346.14340	450.69052	209.17087	464.71988	400.81775	334.91580	486.30890	361.19504	338.26434	412.22400	364.83545	336.98615	441.59491	331.08475	340.35703	595.83331	121.28403	272.68384	562.67542	137.58450	185.13766	661.08496	112.49929	223.80815	501.33435	33.90015	296.17566	440.10687	51.33852	237.61615	481.77136	28.76741	177.98444	343.68481	999.45685	106.48281	179.25635	981.94843	64.73813	142.60471	620.59515	1.14405	127.56584	577.43848	12.24992	86.92348	637.76550	18.59887	78.19258	591.45795	22.05106	88.72314	494.68561	45.23552	109.84521	473.40518	158.24368	145.70419	375.03137	22.40101	135.72412	332.55756	19.03253	82.48151	381.40598	23.64010	84.04636	339.88199	18.09364	62.85271	81.02759	77.63634	34.80822	107.91795	165.41092	116.66581	52.73634	125.01564	-83.57576	46.28807	166.85512	-116.45859	72.53649	114.01314	-59.88191	32.72455	51.70556
1553	6.20800	355.92996	996.84546	226.18788	199.95198	971.84906	311.28748	346.23630	593.62073	356.32178	351.63821	546.87384	339.80923	294.31516	592.10345	356.63605	300.91449	547.40186	347.30850	353.91910	469.74094	327.70700	341.38992	450.18628	209.05049	459.93372	401.39590	334.77051	482.24924	362.30334	338.36191	408.36731	365.36090	337.91107	437.78885	331.73978	340.59497	594.08838	123.40087	272.89984	560.72754	139.11926	185.02863	659.26282	115.62981	223.83228	500.92072	34.14175	296.17599	439.74582	51.08682	237.62939	481.56668	28.94332	178.10475	338.87897	1000.02338	106.36475	174.91302	982.44006	64.13125	137.69957	621.09961	0.75709	123.05849	577.70154	12.38726	82.07011	638.22253	18.07203	73.43453	591.90924	21.69749	84.55079	495.09305	44.56919	105.92023	473.95758	157.91356	141.82050	375.67514	21.38629	132.13977	333.22379	18.00986	78.62273	381.58841	23.30148	80.42770	340.42462	17.50132	62.16552	81.00196	77.64259	34.32290	107.58196	165.54251	116.34142	53.21444	124.97127	-84.06008	45.03483	167.29347	-117.24409	71.01130	114.46509	-60.12970	32.63617	51.71901
1554	6.21200	351.35596	996.96759	225.91881	195.38412	971.78534	310.68332	341.07953	593.23279	356.18381	346.21606	546.39819	339.66785	289.16562	591.84381	356.67227	295.76935	547.18170	347.48547	348.56396	469.61069	327.95755	337.09106	450.06546	207.23074	455.44324	402.66965	334.98425	478.02597	363.45490	338.49576	403.90375	365.75107	338.11115	433.84991	332.47510	340.92474	592.14105	125.54717	273.17719	558.30530	140.74445	185.47571	657.29150	118.98130	223.94173	500.49521	34.41453	296.20844	439.39365	50.84657	237.67058	481.34784	29.11525	178.21867	334.53653	1000.34265	106.08601	170.43304	982.83380	63.66391	132.90062	621.66486	0.39272	117.67400	578.93750	11.20503	77.30519	638.97534	17.63110	68.64696	592.34796	21.36782	80.47008	495.50229	43.85995	102.12714	474.41003	157.53667	138.04370	376.26434	20.34302	128.60013	333.73865	17.03552	74.80313	381.58807	23.24156	76.87605	340.79456	16.98636	61.53251	80.96528	77.68665	33.97762	107.29194	165.69156	115.98177	53.55101	124.91401	-84.14242	43.99565	167.76221	-117.73592	69.84054	115.02478	-60.39417	32.53544	51.77046
1555	6.21600	346.77615	997.12488	225.63991	190.74585	971.75177	310.12598	335.79904	592.95502	356.06891	340.90027	546.10834	339.62854	283.61243	591.46558	356.52603	290.46237	546.86328	348.51947	342.99847	469.53354	328.22034	331.31784	449.49039	207.49406	450.56122	403.71597	335.00806	474.00208	365.03162	338.67825	399.60031	366.29730	338.60831	429.82492	333.35480	341.24844	590.06769	127.86031	273.38495	555.76776	142.50575	185.85211	655.09705	122.45940	223.96187	500.01273	34.69522	296.19696	438.96655	50.57852	237.69940	481.07538	29.27767	178.34869	330.21741	1000.77637	105.74676	166.05556	983.39459	63.00810	128.05078	622.22418	0.12004	112.75373	579.48212	10.97421	72.30130	639.09595	17.43348	63.88629	592.87787	21.21141	76.47639	495.90140	43.16829	98.41592	474.75961	157.19415	134.34082	376.80316	19.31454	125.17359	334.23022	16.06697	71.02405	381.48550	23.23581	73.49242	341.18155	16.42708	60.95050	80.95494	77.74393	33.65076	107.04094	165.83046	115.78679	53.88211	124.90104	-84.43107	43.00338	167.99593	-118.16361	68.80177	115.57144	-60.73911	32.34228	51.89787
1556	6.22000	342.25357	997.27966	225.37021	186.25296	971.73511	309.44556	330.48087	592.64740	355.96716	335.21991	545.69519	339.67191	278.57825	591.45123	356.86038	285.03735	546.67950	348.81357	337.28445	469.34607	328.55310	325.33197	448.82794	207.79279	445.58746	404.85486	334.99719	469.40961	366.35544	338.74295	394.55841	366.42917	338.00049	425.47333	334.10663	341.48639	587.87762	130.33847	273.66418	553.01526	144.39565	186.47990	652.54865	125.99033	224.04245	499.44815	34.97781	296.21808	438.45370	50.40258	237.87868	480.76413	29.43468	178.45520	325.85446	1001.21552	105.42689	161.64212	983.76221	62.50329	123.41242	622.89087	-0.06528	108.19022	579.95129	10.79731	67.50367	639.69897	17.19864	59.10346	593.28870	21.32258	72.56513	496.27805	42.55474	94.91904	475.16318	156.93193	130.76765	377.34125	18.33876	121.87866	334.62592	15.22374	67.50208	381.58905	22.85570	70.03009	340.46863	17.90757	60.50197	80.94108	77.77750	33.45724	106.89058	165.93726	115.54095	54.05684	124.87089	-84.53122	42.24782	168.45317	-118.35703	67.90556	116.07727	-60.85124	32.35566	51.95836
